<svg xmlns="http://www.w3.org/2000/svg" viewBox="0 0 512 512" fill="currentColor">
  <path d="M256 0C114.6 0 0 114.6 0 256s114.6 256 256 256s256-114.6 256-256S397.4 0 256 0zm0 464c-114.7 0-208-93.3-208-208S141.3 48 256 48s208 93.3 208 208s-93.3 208-208 208zm96-304c-8.8 0-16 7.2-16 16v192c0 8.8 7.2 16 16 16s16-7.2 16-16V176c0-8.8-7.2-16-16-16zm-192 0c-8.8 0-16 7.2-16 16v192c0 8.8 7.2 16 16 16s16-7.2 16-16V176c0-8.8-7.2-16-16-16zm96 0c-8.8 0-16 7.2-16 16v192c0 8.8 7.2 16 16 16s16-7.2 16-16V176c0-8.8-7.2-16-16-16z"/>
</svg>

