<svg xmlns="http://www.w3.org/2000/svg" viewBox="0 0 512 512" fill="currentColor">
  <path d="M64 64C28.7 64 0 92.7 0 128V384c0 35.3 28.7 64 64 64H448c35.3 0 64-28.7 64-64V128c0-35.3-28.7-64-64-64H64zm64 320H64V320c35.3 0 64 28.7 64 64zM64 192V128h64c0 35.3-28.7 64-64 64zM448 384c0 35.3-28.7 64-64 64H320c0-35.3 28.7-64 64-64h64zm0-128h-64c-35.3 0-64-28.7-64-64V128h64c35.3 0 64 28.7 64 64v64zM288 352c-6.7 0-12.5 4.7-14.2 11.2l-2.2 7.8c-.5 1.9-1.7 3.4-3.4 4.2l-7.8 4.4c-1.9 1.1-4.2 1.1-6.1 0l-7.8-4.4c-1.7-.8-2.9-2.3-3.4-4.2l-2.2-7.8c-1.7-6.5-7.5-11.2-14.2-11.2s-12.5 4.7-14.2 11.2l-2.2 7.8c-.5 1.9-1.7 3.4-3.4 4.2l-7.8 4.4c-1.9 1.1-4.2 1.1-6.1 0l-7.8-4.4c-1.7-.8-2.9-2.3-3.4-4.2l-2.2-7.8C186.5 356.7 180.7 352 174 352s-12.5 4.7-14.2 11.2l-2.2 7.8c-.5 1.9-1.7 3.4-3.4 4.2l-7.8 4.4c-1.9 1.1-4.2 1.1-6.1 0l-7.8-4.4c-1.7-.8-2.9-2.3-3.4-4.2l-2.2-7.8C126.5 356.7 120.7 352 114 352H96V320h18c6.7 0 12.5-4.7 14.2-11.2l2.2-7.8c.5-1.9 1.7-3.4 3.4-4.2l7.8-4.4c1.9-1.1 4.2-1.1 6.1 0l7.8 4.4c1.7 .8 2.9 2.3 3.4 4.2l2.2 7.8c1.7 6.5 7.5 11.2 14.2 11.2s12.5-4.7 14.2-11.2l2.2-7.8c.5-1.9 1.7-3.4 3.4-4.2l7.8-4.4c1.9-1.1 4.2-1.1 6.1 0l7.8 4.4c1.7 .8 2.9 2.3 3.4 4.2l2.2 7.8c1.7 6.5 7.5 11.2 14.2 11.2s12.5-4.7 14.2-11.2l2.2-7.8c.5-1.9 1.7-3.4 3.4-4.2l7.8-4.4c1.9-1.1 4.2-1.1 6.1 0l7.8 4.4c1.7 .8 2.9 2.3 3.4 4.2l2.2 7.8c1.7 6.5 7.5 11.2 14.2 11.2H288V352z"/>
</svg>

