<svg xmlns="http://www.w3.org/2000/svg" xmlns:xlink="http://www.w3.org/1999/xlink" xml:space="preserve" width="297mm" height="100mm" style="shape-rendering:geometricPrecision; text-rendering:geometricPrecision; image-rendering:optimizeQuality; fill-rule:evenodd; clip-rule:evenodd" viewBox="0 0 29700 10000"> <defs>  <style type="text/css">       .fil0 {fill:#2B2A29}    .fil1 {fill:#2B2A29;fill-rule:nonzero}     </style> </defs> <g id="Katman_x0020_1">  <metadata id="CorelCorpID_0Corel-Layer"></metadata>  <path class="fil0" d="M28992.83 2210.47c-95.88,-294.59 -276.97,-561.33 -509.34,-756.16 -139.36,-116.84 -324.3,-240.02 -525.22,-329.38 -505.31,-224.77 -1034.06,-250.41 -1562.51,-138.49 -440.52,93.32 -805.38,288.57 -1094.21,615.4 -340.18,384.92 -464.44,889.95 -373.18,1529.29 38.82,272.05 121.25,516.6 214.66,752.98 176.44,446.54 657.18,839.85 1068.95,1879.36 142.45,359.6 240.89,812.4 237.83,1215.69 -1.03,135.58 -91.39,313.25 -224.91,208.83 -207.2,-162.1 14.84,-693.81 -543.57,-1422.16 -266.95,-348.19 -596.02,-734.86 -872.26,-1092.96l-626.62 -840.54c-133.16,-176.15 -98.3,-121.53 -122.56,-375.79 -36.43,-10.34 -135.83,19.4 -219.27,4.32 -80.86,-108.75 -62.13,-134.32 17.35,-226.28 197.25,-228.23 225.41,-714.63 169.27,-910.88 -94.32,-3.62 -341.69,287.8 -399.78,367.33 -178.51,244.5 48.21,152.42 -480.92,287.78 -140.97,36.05 -254.33,73.09 -379.35,134.13 -244.68,119.52 -391.53,310.06 -522.57,502.68 -75.35,110.77 -318.08,570.27 -330.85,708.25 169.68,146.12 282.35,160.03 501.54,194.96 410.27,65.44 458.82,-2.65 672.43,8.16 84.35,172.19 123.02,203.75 84.4,456.02 -63.67,415.74 -514.82,1105.24 -466.48,1283.46 182.14,78.94 895.93,-672.51 1052.82,-530.82l0.78 105.2c-131.28,403.13 -190.94,97.06 -165.64,752.83 24.29,629.48 130.89,1172.31 400.89,1727.65 249.01,512.2 1.81,361.43 -225.9,418.93 -203.62,51.4 -191.36,206.87 53.71,210.77 326.02,5.28 1110.71,-6.06 1273.09,-5.7 514.03,1.16 851.8,55.79 1314.78,-112.19 670.22,-243.15 1259.92,-686.38 1412.42,-1419.73 167.71,-806.41 -221.19,-1654.38 -437.18,-2326.24 -107.94,-335.79 -251.68,-810.7 -219.13,-1198.06 19.06,-226.74 119.01,-359.7 252.78,-455.41 147.34,-105.41 399.51,-96.09 610.23,-102.11 -15.1,-272.39 -643.77,-523.64 -653.55,-711.11 201.91,-202.5 1028.54,252.93 1253.91,879.64 99.21,275.89 73.38,357.73 87.76,654.06 120.12,-188.82 211.9,-471.29 274.07,-697.62 126.11,-459.28 144.33,-806.61 1.33,-1246.09z"></path>  <path class="fil0" d="M18541.75 7814.49l614.66 -3 486.85 -1372.4c80.24,-240.31 385.83,-1203.42 502.54,-1345.13 123.79,14.72 150.97,130.64 199.03,269.53l361.09 1048.47c80.31,238.16 448.11,1259.54 478.56,1400.66l2127.78 -7.02c-133.95,-271.68 -185.93,-833.65 -172.92,-1179.79 -73.3,1.3 -992.69,445.69 -919.52,-459.46 27.54,-340.64 233.18,-712.21 417.68,-990.48 27.18,-41 72.92,-77.42 75.88,-130.72 -402.47,-71.45 -709.09,-44.5 -1125.84,-340.86 -54.66,-38.86 -83.71,-65.96 -133.9,-108.11 -29.47,-24.74 -101.37,-100.95 -119.3,-138.46 15.68,-113.96 164.36,-273.62 185.46,-383.97l-1665.53 -3.7 -1148.93 3255.65c-45.77,122.23 -144.88,369.69 -163.59,488.79z"></path>  <path class="fil0" d="M840.95 7123.54c-44.58,64.9 -222.03,412.33 -234.16,481.7 160.63,111.93 756.77,227.13 1011.43,248.22 686.6,56.82 1415.84,-157.58 1633.23,-855.2 104.88,-336.64 -29.74,-687.95 -280.21,-925.25 -321.6,-304.69 -804.36,-434.77 -1232.45,-647.77 -172.17,-85.65 -258.71,-139.14 -355.81,-270.72 -114.72,-155.48 14.08,-352.95 111.65,-427.35 265.17,-202.2 722.99,-203.49 1049.02,-166.48 106.8,12.12 504.51,77.09 571.19,65.45l-10.75 -538.73c-167.02,-62.2 -920.12,-79.98 -1138.39,-70.39 -352.09,15.45 -717.37,91.98 -961.72,261.69 -561.35,389.95 -380.12,1390.55 167.07,1629.4 503.74,346.3 1574.53,534.3 1413.02,974.92 -191.9,523.57 -809.18,519.04 -1288.46,397.1 -124.91,-31.77 -429.11,-154.74 -454.66,-156.59z"></path>  <path class="fil0" d="M13581.16 7085.91l-222.95 508.7c421.26,125.73 512.72,187.21 1003.65,233.08 660.16,61.68 1452.96,-183.4 1629.92,-867.18 100.9,-389.87 -50.55,-667.8 -296.28,-922.11 -359.35,-371.94 -1335.02,-543.26 -1578.34,-913.45 -167.79,-255.27 168.85,-534.69 579.18,-583.44 525.15,-62.41 800.94,60.14 1158.4,74.97l0.9 -542.14c-636.97,-108.19 -1616.54,-155.8 -2098.31,182.65 -432.4,303.75 -450.73,1039.77 -103.57,1416.42 272.07,295.2 734.14,455.58 1066.55,599.77 207.98,90.22 711.4,281.19 604.35,576.31 -105.29,290.23 -349.94,457.05 -739.93,476.21 -273.5,13.46 -526.39,-55.19 -774.11,-143.43 -75.34,-26.83 -161.59,-78.56 -229.46,-96.36z"></path>  <path class="fil0" d="M9633.29 6749.68c-146.84,-6.54 -298.97,-4.77 -446.41,-5.65 -267.11,-1.6 -209.38,-25.21 -354.5,93.82 -158.15,129.74 -377.02,249.86 -627.64,265.93 -495.16,31.74 -824.67,-434.57 -897.9,-895.04 -123.79,-778.42 444.09,-1704 1129.89,-1485.76 204.17,64.98 421,240.51 511.55,385.36l709.06 6.53c-22.45,-136.2 -194.47,-364.91 -268.4,-460.35 -102.11,-131.78 -231.35,-261.83 -379.96,-360.2 -1045.24,-691.85 -2401.46,191.71 -2359.12,1601.91 23.42,780.15 350.14,1552.94 1127.93,1821.5 640.53,221.17 1191.57,-44.44 1571.6,-505.12 60.36,-73.19 266.89,-346.79 283.9,-462.93z"></path>  <path class="fil0" d="M16748.21 7804.36l667.19 3.09 -0.07 -2794.28c-0.32,-243.54 -52.31,-335.99 202.3,-356.97l1125.74 -3.21c35.23,-48.52 206.17,-517.25 214.53,-581.98l-2212.95 0.49 3.26 3732.86z"></path>  <path class="fil0" d="M3951.66 7801.94l2408.32 -3.65 1.46 -542.63 -1575.58 -7.57c-157.81,0.5 -196.26,19.26 -221.43,-314.98 -11.94,-158.63 -6.47,-343.46 23.39,-493.38 32.83,-164.76 77.17,-127.4 397.61,-127.72 358.6,-0.37 718.53,-0.63 1076.99,5.09l-1.34 -591.83 -2105.79 -4.86 -3.63 2081.53z"></path>  <path class="fil0" d="M10935.04 7227.99c-89.54,-179.84 -99.55,-751.67 -2.9,-924.98 283.28,-48.28 1181.83,26.05 1437.37,-16.88l2.42 -583.92 -62.44 -2.71 -2043.78 1.4 1.45 2080.73 2388.14 4.49 -0.65 -549.99 -1616.75 -5.03c-38.72,-4.88 -59.92,0.42 -102.86,-3.11z"></path>  <path class="fil0" d="M3950.18 4786.85c71.46,18.14 2365.72,9.47 2410.6,-4.98l-0.67 -529.42 -2409.64 -6.78 -0.29 541.18z"></path>  <polygon class="fil0" points="10258.93,4766.51 12661.44,4769.98 12667.65,4225.92 10257.15,4225.65 "></polygon>  <path class="fil1" d="M2049.92 9078.18c154.22,0 295.84,-48.69 295.84,-197.51 0,-107.49 -70.36,-159.05 -196.62,-170.78l-150.64 -13.52c-86.58,-7.22 -123.55,-33.37 -123.55,-91.85 0,-62.24 55.91,-105.38 177.68,-105.38 100.11,0 183.09,38.64 183.09,112.58 0,6.33 0,11.74 -0.9,18.05l86.59 -21.65c0.9,-8.12 0.9,-14.43 0.9,-21.65 0,-111.69 -125.37,-161.3 -269.68,-161.3 -171.38,0 -285.93,61.33 -285.93,189.26 0,99.06 67.66,152.44 183.1,163.25l158.75 14.44c100.12,9.16 128.97,46.16 128.97,97.56 0,72.17 -72.15,114.56 -189.41,114.56 -109.12,0 -201.14,-22.56 -201.14,-104.63 0,-5.42 0.91,-9.93 1.82,-13.53l-83.89 21.63c-0.91,5.42 -0.91,9.04 -0.91,14.44 0,119.06 131.7,156.03 285.93,156.03zm1232.08 0c215.56,0 355.35,-117.24 355.35,-326.5 0,-209.24 -139.79,-326.51 -355.35,-326.51 -214.68,0 -354.48,117.27 -354.48,326.51 0,209.26 139.8,326.5 354.48,326.5zm0 -77.56c-138.01,0 -244.44,-78.47 -244.44,-248.94 0,-170.47 106.43,-248.93 244.44,-248.93 138.89,0 245.32,78.46 245.32,248.93 0,170.47 -106.43,248.94 -245.32,248.94zm1438.6 -187.61l0 -82.07 -371.6 0 0 -212.86 404.07 0 0 -82.07 -509.59 0 0 631.36 105.52 0 0 -254.36 371.6 0zm935.33 254.36l0 -547.49 241.73 0 0 -83.87 -589.88 0 0 83.87 241.72 0 0 547.49 106.43 0zm1483.44 0l207.44 -631.36 -107.32 0 -158.75 507.79 -1.8 0 -152.43 -507.79 -104.63 0 -152.42 507.79 -1.82 0 -158.74 -507.79 -107.32 0 207.44 631.36 110.05 0 155.12 -510.5 156.04 510.5 109.14 0zm1374.84 0l-274.19 -631.36 -122.67 0 -274.19 631.36 111.85 0 52.31 -127.17 340.94 0 54.12 127.17 111.83 0zm-193.92 -201.14l-285.01 0 142.51 -334.63 142.5 334.63zm1331.28 201.14c-9.03,-20.74 -36.2,-113.65 -39.69,-127.17 -16.32,-63.12 -42.39,-126.28 -126.27,-155.15 96.51,-19.83 141.61,-88.38 141.61,-166.85 0,-133.5 -101.96,-182.19 -233.6,-182.19l-310.28 0 0 631.36 105.53 0 0 -260.67 141.6 0c19.85,0 32.48,0.99 46.01,3.62 60.38,11.77 105.37,53.04 128.97,138.89l32.48 118.16 113.64 0zm-462.7 -333.72l0 -219.17 198.42 0c102.83,0 131.7,53.2 131.7,105.52 0,58.62 -33.41,113.65 -131.7,113.65l-198.42 0zm1636.68 333.72l0 -82.07 -414.91 0 0 -202.05 368.01 0 0 -77.56 -368.01 0 0 -187.61 414.91 0 0 -82.07 -520.43 0 0 631.36 520.43 0zm1684.94 10.81c154.22,0 295.84,-48.69 295.84,-197.51 0,-107.49 -70.37,-159.44 -196.63,-170.78l-150.63 -13.52c-86.5,-7.77 -123.56,-33.37 -123.56,-91.85 0,-62.24 55.92,-105.38 177.69,-105.38 100.1,0 183.08,38.64 183.08,112.58 0,6.33 0,11.74 -0.89,18.05l86.58 -21.65c0.91,-8.12 0.91,-14.43 0.91,-21.65 0,-111.69 -125.37,-161.3 -269.68,-161.3 -171.38,0 -285.94,61.33 -285.94,189.26 0,99.06 67.63,152.77 183.11,163.25l158.74 14.44c100.12,9.08 128.97,46.16 128.97,97.56 0,72.17 -72.15,114.56 -189.41,114.56 -109.12,0 -201.13,-22.56 -201.13,-104.63 0,-5.42 0.91,-9.93 1.81,-13.53l-83.89 21.63c-0.9,5.42 -0.9,9.04 -0.9,14.44 0,119.06 131.69,156.03 285.93,156.03zm1198.43 0c215.57,0 355.35,-117.24 355.35,-326.5 0,-209.24 -139.78,-326.51 -355.35,-326.51 -214.68,0 -354.48,117.27 -354.48,326.51 0,209.26 139.8,326.5 354.48,326.5zm0 -77.56c-138,0 -244.43,-78.47 -244.43,-248.94 0,-170.47 106.43,-248.93 244.43,-248.93 138.89,0 245.32,78.46 245.32,248.93 0,170.47 -106.43,248.94 -245.32,248.94zm1466.56 66.75l0 -83.89 -399.56 0 0 -547.47 -105.52 0 0 631.36 505.08 0zm843.65 10.81c189.41,0 299.44,-83.87 299.44,-250.74l0 -391.43 -106.43 0 0 390.54c0,118.1 -77.56,170.47 -193.01,170.47 -115.44,0 -192.12,-52.32 -192.12,-170.47l0 -390.54 -106.43 0 0 391.43c0,166.82 109.14,250.74 298.55,250.74zm1245.28 -10.81l0 -547.49 241.73 0 0 -83.87 -589.88 0 0 83.87 241.72 0 0 547.49 106.43 0zm889.88 0l0 -631.09 -101.03 0 0 631.09 101.03 0zm975.59 10.81c215.57,0 355.36,-117.24 355.36,-326.5 0,-209.24 -139.79,-326.51 -355.36,-326.51 -214.67,0 -354.48,117.27 -354.48,326.51 0,209.26 139.81,326.5 354.48,326.5zm0 -77.56c-138,0 -244.43,-78.47 -244.43,-248.94 0,-170.47 106.43,-248.93 244.43,-248.93 138.9,0 245.33,78.46 245.33,248.93 0,170.47 -106.43,248.94 -245.33,248.94zm1554.38 66.75l0 -631.36 -102.82 0 0 485.25 -395.07 -485.25 -111.83 0 0 631.36 101.92 0 0 -484.34 395.95 484.34 111.85 0zm895.64 10.81c154.22,0 295.84,-48.69 295.84,-197.51 0,-107.49 -70.37,-159.05 -196.63,-170.78l-150.63 -13.52c-86.58,-7.22 -123.56,-33.37 -123.56,-91.85 0,-62.24 55.92,-105.38 177.69,-105.38 100.1,0 183.08,38.64 183.08,112.58 0,6.33 0,11.74 -0.89,18.05l86.58 -21.65c0.91,-8.12 0.91,-14.43 0.91,-21.65 0,-111.69 -125.37,-161.3 -269.68,-161.3 -171.38,0 -285.93,61.33 -285.93,189.26 0,99.06 67.65,152.44 183.1,163.25l158.74 14.44c100.12,9.16 128.97,46.16 128.97,97.56 0,72.17 -72.14,114.56 -189.41,114.56 -109.12,0 -201.13,-22.56 -201.13,-104.63 0,-5.42 0.91,-9.93 1.81,-13.53l-83.88 21.63c-0.91,5.42 -0.91,9.04 -0.91,14.44 0,119.06 131.69,156.03 285.93,156.03z"></path> </g></svg>