<svg xmlns="http://www.w3.org/2000/svg" viewBox="0 0 512 512" fill="currentColor">
  <path d="M256 0c17.7 0 32 14.3 32 32V64h32c17.7 0 32 14.3 32 32s-14.3 32-32 32H288v32c0 17.7-14.3 32-32 32s-32-14.3-32-32V128H192c-17.7 0-32-14.3-32-32s14.3-32 32-32h32V32c0-17.7 14.3-32 32-32zM64 160c-35.3 0-64 28.7-64 64V448c0 35.3 28.7 64 64 64H448c35.3 0 64-28.7 64-64V224c0-35.3-28.7-64-64-64H64zm32 96c0-17.7 14.3-32 32-32H384c17.7 0 32 14.3 32 32v96c0 17.7-14.3 32-32 32H128c-17.7 0-32-14.3-32-32V256zm32 32v64H352V288H128z"/>
</svg>

