<svg xmlns="http://www.w3.org/2000/svg" viewBox="0 0 640 512" fill="currentColor">
  <path d="M64 96V416H576V96H64zM48 80H592c8.8 0 16 7.2 16 16V432c0 8.8-7.2 16-16 16H48c-8.8 0-16-7.2-16-16V96c0-8.8 7.2-16 16-16zM128 320H512V192H128V320zM96 160H544c8.8 0 16 7.2 16 16v160c0 8.8-7.2 16-16 16H96c-8.8 0-16-7.2-16-16V176c0-8.8 7.2-16 16-16zM176 240c0-8.8 7.2-16 16-16h96c8.8 0 16 7.2 16 16s-7.2 16-16 16H192c-8.8 0-16-7.2-16-16zm0 64c0-8.8 7.2-16 16-16h96c8.8 0 16 7.2 16 16s-7.2 16-16 16H192c-8.8 0-16-7.2-16-16zm160-64c0-8.8 7.2-16 16-16h96c8.8 0 16 7.2 16 16s-7.2 16-16 16H352c-8.8 0-16-7.2-16-16zm0 64c0-8.8 7.2-16 16-16h96c8.8 0 16 7.2 16 16s-7.2 16-16 16H352c-8.8 0-16-7.2-16-16z"/>
</svg>

